<svg width="18" height="21" viewBox="0 0 18 21" fill="none" xmlns="http://www.w3.org/2000/svg">
<path d="M13.769 6.34945C15.2351 6.34945 16.4237 5.15194 16.4237 3.67473C16.4237 2.19752 15.2351 1 13.769 1C12.3028 1 11.1143 2.19752 11.1143 3.67473C11.1143 5.15194 12.3028 6.34945 13.769 6.34945Z" stroke="white" stroke-width="2" stroke-miterlimit="10"/>
<path d="M13.769 19.1712C15.2351 19.1712 16.4237 17.9737 16.4237 16.4965C16.4237 15.0193 15.2351 13.8218 13.769 13.8218C12.3028 13.8218 11.1143 15.0193 11.1143 16.4965C11.1143 17.9737 12.3028 19.1712 13.769 19.1712Z" stroke="white" stroke-width="2" stroke-miterlimit="10"/>
<path d="M3.65472 13.0228C5.12088 13.0228 6.30944 11.8253 6.30944 10.3481C6.30944 8.87086 5.12088 7.67334 3.65472 7.67334C2.18856 7.67334 1 8.87086 1 10.3481C1 11.8253 2.18856 13.0228 3.65472 13.0228Z" stroke="white" stroke-width="2" stroke-miterlimit="10"/>
<path d="M11.6496 5.27734L5.77417 8.7424" stroke="white" stroke-width="2" stroke-miterlimit="10"/>
<path d="M5.77417 11.8413L11.6496 15.0026" stroke="white" stroke-width="2" stroke-miterlimit="10"/>
</svg>
