<svg width="90" height="20" viewBox="0 0 90 20" fill="none" xmlns="http://www.w3.org/2000/svg">
<path d="M17.3593 1.56152H4.97984C2.78297 1.56152 1 3.294 1 5.42866V11.0367C1 13.1714 2.78297 14.9038 4.97984 14.9038H13.31L16.6646 17.7472V14.9066H17.3622C19.5591 14.9066 21.342 13.1742 21.342 11.0395V5.42866C21.3391 3.294 19.5591 1.56152 17.3593 1.56152Z" stroke="#927FD2" stroke-width="1.3" stroke-miterlimit="10"/>
<path d="M48.8656 4.57416C46.5675 -0.70205 37.5629 1.80668 38.8104 6.83258C40.0637 11.8838 48.9033 17.4469 48.9033 17.4469C48.9033 17.4469 57.7226 11.791 58.9585 6.73696C60.1916 1.68856 51.1001 -0.794862 48.8656 4.57416Z" stroke="#927FD2" stroke-width="1.3" stroke-miterlimit="10"/>
<path d="M86.8241 5.8544C88.2036 5.8544 89.322 4.76771 89.322 3.4272C89.322 2.08669 88.2036 1 86.8241 1C85.4445 1 84.3262 2.08669 84.3262 3.4272C84.3262 4.76771 85.4445 5.8544 86.8241 5.8544Z" stroke="#927FD2" stroke-width="1.3" stroke-miterlimit="10"/>
<path d="M86.8246 17.4896C88.2041 17.4896 89.3224 16.4029 89.3224 15.0624C89.3224 13.7219 88.2041 12.6353 86.8246 12.6353C85.445 12.6353 84.3267 13.7219 84.3267 15.0624C84.3267 16.4029 85.445 17.4896 86.8246 17.4896Z" stroke="#927FD2" stroke-width="1.3" stroke-miterlimit="10"/>
<path d="M77.3074 11.9095C78.687 11.9095 79.8053 10.8228 79.8053 9.48234C79.8053 8.14186 78.687 7.05518 77.3074 7.05518C75.9279 7.05518 74.8096 8.14186 74.8096 9.48234C74.8096 10.8228 75.9279 11.9095 77.3074 11.9095Z" stroke="#927FD2" stroke-width="1.3" stroke-miterlimit="10"/>
<path d="M84.8301 4.8811L79.3018 8.02549" stroke="#927FD2" stroke-width="1.3" stroke-miterlimit="10"/>
<path d="M79.3018 10.8381L84.8301 13.7068" stroke="#927FD2" stroke-width="1.3" stroke-miterlimit="10"/>
</svg>
