<svg width="16" height="19" viewBox="0 0 16 19" fill="none" xmlns="http://www.w3.org/2000/svg">
<path d="M12.8241 5.8544C14.2036 5.8544 15.322 4.76771 15.322 3.4272C15.322 2.08669 14.2036 1 12.8241 1C11.4445 1 10.3262 2.08669 10.3262 3.4272C10.3262 4.76771 11.4445 5.8544 12.8241 5.8544Z" stroke="#927FD2" stroke-width="1.3" stroke-miterlimit="10"/>
<path d="M12.8246 17.4896C14.2041 17.4896 15.3224 16.4029 15.3224 15.0624C15.3224 13.7219 14.2041 12.6353 12.8246 12.6353C11.445 12.6353 10.3267 13.7219 10.3267 15.0624C10.3267 16.4029 11.445 17.4896 12.8246 17.4896Z" stroke="#927FD2" stroke-width="1.3" stroke-miterlimit="10"/>
<path d="M3.30743 11.9095C4.68697 11.9095 5.8053 10.8228 5.8053 9.48234C5.8053 8.14186 4.68697 7.05518 3.30743 7.05518C1.9279 7.05518 0.80957 8.14186 0.80957 9.48234C0.80957 10.8228 1.9279 11.9095 3.30743 11.9095Z" stroke="#927FD2" stroke-width="1.3" stroke-miterlimit="10"/>
<path d="M10.8301 4.8811L5.30176 8.02549" stroke="#927FD2" stroke-width="1.3" stroke-miterlimit="10"/>
<path d="M5.30176 10.8381L10.8301 13.7068" stroke="#927FD2" stroke-width="1.3" stroke-miterlimit="10"/>
</svg>
